# This file uses centimeters as units for non-parametric coordinates.

mtllib House Roof 01.mtl
g default
v -1.000000 0.667119 1.500000
v 0.101000 0.067187 1.500000
v -1.000000 0.667119 0.500000
v 0.101000 0.067187 0.500000
vt 0.000000 0.000000
vt 1.000000 0.000000
vt 1.000000 1.000000
vt 0.000000 1.000000
vn 0.478475 0.878101 0.000000
vn 0.478475 0.878101 0.000000
vn 0.478475 0.878101 0.000000
vn 0.478475 0.878101 0.000000
s off
g pCylinder20
usemtl initialShadingGroup
f 2/1/1 4/2/2 3/3/3 1/4/4
