# This file uses centimeters as units for non-parametric coordinates.

mtllib House Roof 03.mtl
g default
v -0.500000 0.667119 0.500000
v 0.601000 0.067187 0.500000
v 0.601000 0.067187 -0.601000
vt 0.000000 0.000000
vt 1.000000 0.000000
vt 0.000000 1.000000
vn 0.478475 0.878101 0.000000
vn 0.478475 0.878101 0.000000
vn 0.478475 0.878101 0.000000
s off
g pCube14
usemtl initialShadingGroup
f 2/1/1 3/2/2 1/3/3
g default
v -0.500000 0.067187 -0.601000
v -0.500000 0.667119 0.500000
v 0.601000 0.067187 -0.601000
vt 1.000000 1.000000
vt 0.000000 0.000000
vt 1.000000 0.000000
vn 0.000000 0.878101 -0.478475
vn 0.000000 0.878101 -0.478475
vn 0.000000 0.878101 -0.478475
s off
g pCube15
usemtl initialShadingGroup
f 5/4/4 6/5/5 4/6/6
