# This file uses centimeters as units for non-parametric coordinates.

mtllib House Wall 05.mtl
g default
v 0.000000 0.000000 -0.500000
v 0.000000 0.000000 -1.500000
v 0.167533 0.000000 -1.335570
v 0.167533 0.000000 -0.664430
vt 0.000000 1.000000
vt 0.165767 0.816567
vt 0.834233 0.816567
vt 1.000000 1.000000
vn 0.000000 1.000000 0.000000
vn 0.000000 1.000000 0.000000
vn 0.000000 1.000000 0.000000
vn 0.000000 1.000000 0.000000
s off
g polySurface4 pPlane13
usemtl lambert8SG
f 1/1/1 4/2/2 3/3/3 2/4/4
