# This file uses centimeters as units for non-parametric coordinates.

mtllib House Roof Wall 04.mtl
g default
v -0.500000 0.000000 0.000000
v 0.467076 0.000000 0.000000
v -0.500000 0.667119 0.000000
v 0.467076 0.140162 0.000000
vt 0.000000 0.693541
vt 0.000000 0.000000
vt 1.000000 0.000000
vt 1.000000 0.150815
vn 0.000000 0.000000 1.000000
vn 0.000000 0.000000 1.000000
vn 0.000000 0.000000 1.000000
vn 0.000000 0.000000 1.000000
s off
g pCube10
usemtl initialShadingGroup
f 3/1/1 1/2/2 2/3/3 4/4/4
