# This file uses centimeters as units for non-parametric coordinates.

mtllib House Roof Wall 07.mtl
g default
v 0.601000 0.000000 0.500000
v 0.601000 0.000000 -0.601000
v 0.601000 0.067187 -0.601000
v 0.601000 0.067187 0.500000
vt 0.186602 0.480875
vt 0.813398 0.480875
vt 0.813398 0.519125
vt 0.186602 0.519125
vn 1.000000 0.000000 0.000000
vn 1.000000 0.000000 0.000000
vn 1.000000 0.000000 0.000000
vn 1.000000 0.000000 0.000000
s off
g polySurface8
usemtl initialShadingGroup
f 1/1/1 2/2/2 3/3/3 4/4/4
g default
v -0.500000 0.000000 -0.601000
v -0.500000 0.067187 -0.601000
v 0.601000 0.067187 -0.601000
v 0.601000 0.000000 -0.601000
vt 0.186602 0.519125
vt 0.186602 0.480875
vt 0.813398 0.480875
vt 0.813398 0.519125
vn 0.000000 0.000000 -1.000000
vn 0.000000 0.000000 -1.000000
vn 0.000000 0.000000 -1.000000
vn 0.000000 0.000000 -1.000000
s off
g pCube18
usemtl initialShadingGroup
f 5/5/5 6/6/6 7/7/7 8/8/8
