# This file uses centimeters as units for non-parametric coordinates.

mtllib House Roof Wall 02.mtl
g default
v -0.500000 0.000000 0.000000
v -0.500000 0.667119 0.000000
v 0.601000 0.000000 0.000000
v 0.601000 0.067187 0.000000
vt 0.000000 0.601754
vt 0.000000 0.000000
vt 1.000000 0.000000
vt 1.000000 0.059027
vn 0.000000 0.000000 1.000000
vn 0.000000 0.000000 1.000000
vn 0.000000 0.000000 1.000000
vn 0.000000 0.000000 1.000000
s off
g pCylinder35
usemtl initialShadingGroup
f 2/1/1 1/2/2 3/3/3 4/4/4
