# This file uses centimeters as units for non-parametric coordinates.

mtllib Flat Wall Bulky 01.mtl
g default
v -0.075643 0.000000 0.500000
v -0.075643 0.000000 -0.500000
v 0.124183 0.000000 0.500000
v 0.124183 0.000000 -0.500000
v 0.124183 1.000000 0.500000
v 0.124183 1.000000 -0.500000
v -0.075643 1.000000 -0.500000
v -0.075643 1.000000 0.500000
vt 0.150000 0.100000
vt 0.850000 0.100000
vt 0.850000 0.900000
vt 0.150000 0.900000
vt 1.000000 0.100000
vt 1.000000 0.900000
vt 0.000000 0.900000
vt 0.000000 0.100000
vn 1.000000 0.000000 0.000000
vn 1.000000 0.000000 0.000000
vn 1.000000 0.000000 0.000000
vn 1.000000 0.000000 0.000000
vn 0.000000 0.000000 -1.000000
vn 0.000000 0.000000 -1.000000
vn 0.000000 0.000000 -1.000000
vn 0.000000 0.000000 -1.000000
vn 0.000000 0.000000 1.000000
vn 0.000000 0.000000 1.000000
vn 0.000000 0.000000 1.000000
vn 0.000000 0.000000 1.000000
s off
g polySurface9 pPlane7
usemtl lambert6SG
f 3/1/1 4/2/2 6/3/3 5/4/4
f 2/5/5 7/6/6 6/3/7 4/2/8
f 8/7/9 1/8/10 3/1/11 5/4/12
