# This file uses centimeters as units for non-parametric coordinates.

mtllib Lower Part Arch 01.mtl
g default
v -0.000000 0.000000 0.450000
v -1.000000 0.000000 0.450000
v -0.000000 1.000000 0.450000
v -1.000000 1.000000 0.450000
vt -0.000000 0.000000
vt 1.000000 -0.000000
vt 1.000000 1.000000
vt 0.000000 1.000000
vn 0.000000 0.000000 -1.000000
vn 0.000000 0.000000 -1.000000
vn 0.000000 0.000000 -1.000000
vn 0.000000 0.000000 -1.000000
s off
g polySurface25 polySurface22 polySurface1
usemtl lambert4SG
f 1/1/1 2/2/2 4/3/3 3/4/4
g default
v -0.000000 0.000000 1.000000
v -0.000000 1.000000 1.000000
v -1.000000 0.000000 1.000000
v -1.000000 1.000000 1.000000
vt 1.000000 1.000000
vt 0.000000 1.000000
vt 0.000000 0.000000
vt 1.000000 0.000000
vn 0.000000 0.000000 1.000000
vn 0.000000 0.000000 1.000000
vn 0.000000 0.000000 1.000000
vn 0.000000 0.000000 1.000000
s off
g polySurface1 polySurface23
usemtl lambert4SG
f 6/5/5 8/6/6 7/7/7 5/8/8
g default
v -0.000000 0.000000 1.000000
v -0.000000 1.000000 1.000000
v -0.000000 1.000000 0.450000
v -0.000000 0.000000 0.450000
vt 0.548905 0.000000
vt 0.548905 1.000000
vt 0.000000 1.000000
vt 0.000000 0.000000
vn 1.000000 -0.000000 0.000000
vn 1.000000 -0.000000 0.000000
vn 1.000000 -0.000000 0.000000
vn 1.000000 -0.000000 0.000000
s off
g polySurface22 polySurface1 polySurface24
usemtl lambert4SG
f 12/9/9 11/10/10 10/11/11 9/12/12
g default
v -0.000000 1.000000 0.450000
v -0.000000 1.679844 0.000000
v -0.000000 1.657819 0.139056
v 0.000000 1.593901 0.264503
v 0.000000 1.494347 0.364058
v 0.000000 1.368901 0.427976
v 0.000000 1.229844 0.450000
v -1.000000 1.000000 0.450000
v -1.000000 1.679844 0.000000
v -1.000000 1.657819 0.139056
v -1.000000 1.593901 0.264503
v -1.000000 1.494347 0.364058
v -1.000000 1.368901 0.427976
v -1.000000 1.229844 0.450000
vt 0.000000 0.834511
vt 1.000000 0.834511
vt 1.000000 1.000000
vt 0.000000 1.000000
vt -0.000000 0.691628
vt 1.000000 0.691628
vt -0.000000 0.574200
vt 1.000000 0.574200
vt -0.000000 0.427282
vt 1.000000 0.427282
vt -0.000000 0.268896
vt 1.000000 0.268896
vt 0.000000 0.000000
vt 1.000000 0.000000
vn 0.000000 -0.987688 -0.156436
vn 0.000000 -0.987688 -0.156436
vn 0.000000 -0.987688 -0.156436
vn 0.000000 -0.987688 -0.156436
vn 0.000000 -0.891007 -0.453990
vn 0.000000 -0.891007 -0.453990
vn 0.000000 -0.891007 -0.453990
vn 0.000000 -0.891007 -0.453990
vn 0.000000 -0.707110 -0.707104
vn 0.000000 -0.707110 -0.707104
vn 0.000000 -0.707110 -0.707104
vn 0.000000 -0.707110 -0.707104
vn 0.000000 -0.453992 -0.891006
vn 0.000000 -0.453992 -0.891006
vn 0.000000 -0.453992 -0.891006
vn 0.000000 -0.453992 -0.891006
vn 0.000000 -0.156432 -0.987689
vn 0.000000 -0.156432 -0.987689
vn 0.000000 -0.156432 -0.987689
vn 0.000000 -0.156432 -0.987689
vn 0.000000 0.000000 -1.000000
vn 0.000000 0.000000 -1.000000
vn 0.000000 0.000000 -1.000000
vn 0.000000 0.000000 -1.000000
s off
g polySurface13 polySurface10 pPlane30
usemtl lambert4SG
f 15/13/13 22/14/14 21/15/15 14/16/16
f 16/17/17 23/18/18 22/14/19 15/13/20
f 17/19/21 24/20/22 23/18/23 16/17/24
f 18/21/25 25/22/26 24/20/27 17/19/28
f 19/23/29 26/24/30 25/22/31 18/21/32
f 13/25/33 20/26/34 26/24/35 19/23/36
g default
v -0.000000 2.000000 0.000000
v 0.000000 2.000000 0.498018
v 0.000000 2.000000 0.226412
v -0.000000 1.000000 1.000000
v 0.000000 1.235496 1.000000
v 0.000000 1.502949 1.000000
v -0.000000 2.000000 1.000000
v -0.000000 1.679844 0.000000
v -0.000000 1.657819 0.139056
v 0.000000 1.593901 0.264503
v 0.000000 1.494347 0.364058
v 0.000000 1.368901 0.427976
v 0.000000 1.229844 0.450000
v -0.000000 1.000000 0.450000
vt 0.859506 0.657191
vt 1.000000 0.679127
vt 0.998008 1.000000
vt 0.772498 1.000000
vt 0.734559 0.593527
vt 0.501974 1.000000
vt 0.635401 0.494370
vt 0.000000 1.000000
vt 0.571737 0.369424
vt 0.000000 0.502937
vt 0.549801 0.230920
vt 0.000000 0.236550
vt 0.549801 0.000000
vt 0.000000 0.001992
vn 1.000000 -0.000001 -0.000001
vn 1.000000 -0.000001 -0.000001
vn 1.000000 -0.000001 -0.000001
vn 1.000000 -0.000001 -0.000001
vn 1.000000 -0.000001 0.000000
vn 1.000000 -0.000001 0.000000
vn 1.000000 -0.000001 0.000000
vn 1.000000 -0.000001 0.000000
vn 1.000000 -0.000000 0.000000
vn 1.000000 -0.000000 0.000000
vn 1.000000 -0.000000 0.000000
vn 1.000000 -0.000000 0.000000
vn 1.000000 0.000001 -0.000000
vn 1.000000 0.000001 -0.000000
vn 1.000000 0.000001 -0.000000
vn 1.000000 0.000001 -0.000000
vn 1.000000 -0.000000 0.000001
vn 1.000000 -0.000000 0.000001
vn 1.000000 -0.000000 0.000001
vn 1.000000 -0.000000 0.000001
vn 1.000000 -0.000000 -0.000001
vn 1.000000 -0.000000 -0.000001
vn 1.000000 -0.000000 -0.000001
vn 1.000000 -0.000000 -0.000001
s off
g polySurface10 pPlane30 polySurface12
usemtl lambert4SG
f 35/27/37 34/28/38 27/29/39 29/30/40
f 40/39/41 39/37/42 31/38/43 30/40/44
f 39/37/45 38/35/46 32/36/47 31/38/48
f 38/35/49 37/33/50 33/34/51 32/36/52
f 37/33/53 36/31/54 28/32/55 33/34/56
f 36/31/57 35/27/58 29/30/59 28/32/60
g default
v -0.000000 1.000000 1.000000
v -0.000000 2.000000 1.000000
v 0.000000 1.235496 1.000000
v 0.000000 1.502949 1.000000
v -0.999999 1.000001 1.000000
v -0.999999 1.235497 1.000000
v -0.999999 1.502948 1.000000
v -0.999999 1.999999 1.000000
vt 1.000000 0.236550
vt 0.000000 0.236550
vt 0.000000 0.000000
vt 1.000000 0.000000
vt 1.000000 0.502937
vt 0.000000 0.502936
vt 1.000000 1.000000
vt 0.000000 1.000000
vn 0.000000 0.000000 1.000000
vn 0.000000 0.000000 1.000000
vn 0.000000 0.000000 1.000000
vn 0.000000 0.000000 1.000000
vn 0.000000 0.000000 1.000000
vn 0.000000 0.000000 1.000000
vn 0.000000 0.000000 1.000000
vn 0.000000 0.000000 1.000000
vn -0.000000 0.000000 1.000000
vn -0.000000 0.000000 1.000000
vn -0.000000 0.000000 1.000000
vn -0.000000 0.000000 1.000000
s off
g pPlane30 polySurface11
usemtl lambert4SG
f 43/41/61 46/42/62 45/43/63 41/44/64
f 44/45/65 47/46/66 46/42/67 43/41/68
f 42/47/69 48/48/70 47/46/71 44/45/72
